<?xml version="1.0" encoding="UTF-8" standalone="no"?>
<svg
   xmlns:dc="http://purl.org/dc/elements/1.1/"
   xmlns:cc="http://creativecommons.org/ns#"
   xmlns:rdf="http://www.w3.org/1999/02/22-rdf-syntax-ns#"
   xmlns:svg="http://www.w3.org/2000/svg"
   xmlns="http://www.w3.org/2000/svg"
   xmlns:sodipodi="http://sodipodi.sourceforge.net/DTD/sodipodi-0.dtd"
   xmlns:inkscape="http://www.inkscape.org/namespaces/inkscape"
   height="300"
   id="svg2103"
   inkscape:version="0.48.2 r9819"
   sodipodi:docname="Anonymous_aiga_bus.svg"
   sodipodi:version="0.32"
   width="200"
   inkscape:output_extension="org.inkscape.output.svg.inkscape"
   inkscape:export-filename="/home/joanna/gfx/vector/aiga/aiga_bus_.png"
   inkscape:export-xdpi="41.321152"
   inkscape:export-ydpi="41.321152"
   version="1.1">
  <metadata
     id="metadata3">
    <rdf:RDF>
      <cc:Work
         rdf:about="">
        <dc:title>AIGA_Symbol_Signs</dc:title>
        <dc:description>EPS converted from  http://aiga.org</dc:description>
        <dc:subject>
          <rdf:Bag>
            <rdf:li>symbol</rdf:li>
            <rdf:li>mapsym</rdf:li>
          </rdf:Bag>
        </dc:subject>
        <dc:publisher>
          <cc:Agent
             rdf:about="http://www.openclipart.org/">
            <dc:title>Open Clip Art Library</dc:title>
          </cc:Agent>
        </dc:publisher>
        <dc:creator>
          <cc:Agent>
            <dc:title>Jean-Victor Balin</dc:title>
          </cc:Agent>
        </dc:creator>
        <dc:rights>
          <cc:Agent>
            <dc:title>Jean-Victor Balin</dc:title>
          </cc:Agent>
        </dc:rights>
        <dc:date />
        <dc:format>image/svg+xml</dc:format>
        <dc:type
           rdf:resource="http://purl.org/dc/dcmitype/StillImage" />
        <cc:license
           rdf:resource="http://web.resource.org/cc/PublicDomain" />
        <dc:language>en</dc:language>
      </cc:Work>
      <cc:License
         rdf:about="http://web.resource.org/cc/PublicDomain">
        <cc:permits
           rdf:resource="http://web.resource.org/cc/Reproduction" />
        <cc:permits
           rdf:resource="http://web.resource.org/cc/Distribution" />
        <cc:permits
           rdf:resource="http://web.resource.org/cc/DerivativeWorks" />
      </cc:License>
    </rdf:RDF>
  </metadata>
  <sodipodi:namedview
     bordercolor="#666666"
     borderopacity="1.0"
     id="base"
     inkscape:current-layer="svg2103"
     inkscape:cx="386.07501"
     inkscape:cy="75.333634"
     inkscape:pageopacity="0.0"
     inkscape:pageshadow="2"
     inkscape:window-height="988"
     inkscape:window-width="1680"
     inkscape:window-x="-8"
     inkscape:window-y="-8"
     inkscape:zoom="1.2279853"
     pagecolor="#ffffff"
     showgrid="false"
     inkscape:window-maximized="1" />
  <defs
     id="defs2105">
    <inkscape:perspective
       sodipodi:type="inkscape:persp3d"
       inkscape:vp_x="0 : 217.53 : 1"
       inkscape:vp_y="0 : 1000 : 0"
       inkscape:vp_z="355.02399 : 217.53 : 1"
       inkscape:persp3d-origin="177.51199 : 145.02 : 1"
       id="perspective23" />
    <marker
       id="ArrowEnd"
       markerHeight="3"
       markerUnits="strokeWidth"
       markerWidth="4"
       orient="auto"
       refX="0"
       refY="5"
       viewBox="0 0 10 10">
      <path
         d="M 0,0 10,5 0,10 z"
         id="path2108"
         inkscape:connector-curvature="0" />
    </marker>
    <marker
       id="ArrowStart"
       markerHeight="3"
       markerUnits="strokeWidth"
       markerWidth="4"
       orient="auto"
       refX="10"
       refY="5"
       viewBox="0 0 10 10">
      <path
         d="M 10,0 0,5 10,10 z"
         id="path2111"
         inkscape:connector-curvature="0" />
    </marker>
  </defs>
  <path
     style="fill:#d40000;stroke:none"
     id="path2115"
     d="M 101.93707,0.12077253 C 79.225825,0.12077253 47.860555,6.69255 34.882056,12.169031 21.903557,17.645512 13.251224,23.121995 10.547652,36.812912 l -9.73331013,75.899968 0,104.58451 16.76304813,0 0,16.40088 c 0,19.99758 28.896399,19.99758 28.896399,0 l 0,-16.40088 53.347589,0 0.169256,0 55.463276,0 0,16.40088 c 0,19.99758 28.8964,19.99758 28.8964,0 l 0,-16.40088 16.76305,0 0,-104.58451 -9.73331,-75.899968 C 188.67648,23.121995 180.02415,17.645512 167.04565,12.169031 154.06715,6.69255 122.70188,0.12077253 99.990634,0.12077253"
     inkscape:connector-curvature="0" />
  <g
     id="g2117"
     transform="matrix(0.56418445,0,0,0.57135954,0.81434187,0.12077253)">
    <g
       id="g2119">
      <g
         id="g2121">
        <path
           style="fill:#ffffff;stroke:none"
           id="path2123"
           d="m 299.682,322.723 c 13.568,0 24.568,-11.002 24.568,-24.57 0,-13.568 -11,-24.57 -24.568,-24.57 -13.568,0 -24.569,11.002 -24.569,24.57 0,13.568 11.001,24.57 24.569,24.57 z"
           inkscape:connector-curvature="0" />
        <path
           style="fill:#ffffff;stroke:none"
           id="path2125"
           d=""
           inkscape:connector-curvature="0" />
      </g>
      <g
         id="g2127">
        <path
           style="fill:#ffffff;stroke:none"
           id="path2129"
           d="m 55.342,322.723 c -13.568,0 -24.568,-11.002 -24.568,-24.57 0,-13.568 11,-24.57 24.568,-24.57 13.568,0 24.569,11.002 24.569,24.57 0,13.568 -11.001,24.57 -24.569,24.57 z"
           inkscape:connector-curvature="0" />
        <path
           style="fill:#ffffff;stroke:none"
           id="path2131"
           d=""
           inkscape:connector-curvature="0" />
      </g>
    </g>
    <path
       style="fill:#ffffff;stroke:none"
       id="path2133"
       d="m 175.612,55.113 -71.136,0 c -14.378,0 -14.378,-21.566 0,-21.566 l 71.311,0 74.761,0 c 14.378,0 14.378,21.566 0,21.566 l -74.936,0 z"
       inkscape:connector-curvature="0" />
    <path
       style="fill:#ffffff;stroke:none"
       id="path2135"
       d="m 175.612,76.887 -109.897,0 c -15.188,0 -19.156,7.717 -21,19.423 l -13.428,96.348 c -1.252,9.235 1.419,18.402 14.178,18.402 l 130.322,0 133.772,0 c 12.759,0 15.43,-9.167 14.178,-18.402 L 310.309,96.31 c -1.844,-11.706 -5.812,-19.423 -21,-19.423 l -113.697,0 z"
       inkscape:connector-curvature="0" />
  </g>
  <rect
     style="fill:#ff0000"
     id="rect3051"
     width="107.28956"
     height="48.45335"
     x="46.417496"
     y="250.73232" />
  <text
     xml:space="preserve"
     style="font-size:40px;font-style:normal;font-weight:bold;line-height:125%;letter-spacing:0px;word-spacing:0px;fill:#f9f9f9;fill-opacity:1;stroke:none;font-family:Sans;-inkscape-font-specification:Sans Bold;font-stretch:normal;font-variant:normal;text-anchor:start;text-align:start;writing-mode:lr"
     x="87.577614"
     y="288.97052"
     id="text3053"
     sodipodi:linespacing="125%"><tspan
       sodipodi:role="line"
       id="tspan3055"
       x="87.577614"
       y="288.97052">1</tspan></text>
</svg>
